<?xml version="1.0" encoding="UTF-8" standalone="no"?>
<!-- Created with Inkscape (http://www.inkscape.org/) -->

<svg
        width="6.8796835mm"
        height="6.8791671mm"
        viewBox="0 0 6.8796835 6.8791671"
        version="1.1"
        id="svg1"
        xml:space="preserve"
        xmlns:inkscape="http://www.inkscape.org/namespaces/inkscape"
        xmlns:sodipodi="http://sodipodi.sourceforge.net/DTD/sodipodi-0.dtd"
        xmlns="http://www.w3.org/2000/svg"
><sodipodi:namedview
     id="namedview1"
     pagecolor="#ffffff"
     bordercolor="#000000"
     borderopacity="0.25"
     inkscape:showpageshadow="2"
     inkscape:pageopacity="0.0"
     inkscape:pagecheckerboard="0"
     inkscape:deskcolor="#d1d1d1"
     inkscape:document-units="mm"><inkscape:page
       x="0"
       y="0"
       width="6.8796835"
       height="6.8791671"
       id="page2"
       margin="0"
       bleed="0" /></sodipodi:namedview>
    <defs
            id="defs1"><linearGradient
       id="swatch4"
       inkscape:swatch="solid"><stop
         style="stop-color:#000000;stop-opacity:1;"
         offset="0"
         id="stop4" /></linearGradient>
        <linearGradient
                id="swatch3"
                inkscape:swatch="solid"><stop
         style="stop-color:#ebd5e5;stop-opacity:1;"
         offset="0"
         id="stop3" /></linearGradient></defs>
    <g
            inkscape:label="Layer 1"
            inkscape:groupmode="layer"
            id="layer1"
            transform="translate(-219.95349,-295.97162)"><path
       id="path20"
       style="baseline-shift:baseline;display:inline;overflow:visible;vector-effect:none;fill:#ebd5e5;enable-background:accumulate;stop-color:#000000;stop-opacity:1"
       d="m 222.46497,295.9716 c -0.38524,0 -0.691,-1e-5 -0.93689,0.0202 -0.25188,0.0205 -0.46449,0.0635 -0.65887,0.16227 -0.31536,0.16078 -0.5717,0.4173 -0.73226,0.73277 -0.0991,0.19402 -0.14232,0.40699 -0.16278,0.65887 -0.0201,0.24589 -0.0207,0.55166 -0.0207,0.9369 v 1.85776 c 0,0.38524 5.1e-4,0.69049 0.0207,0.93638 0.0205,0.25188 0.0635,0.46466 0.16226,0.65939 0.16078,0.31536 0.41731,0.57169 0.73278,0.73226 0.19402,0.0991 0.40699,0.1418 0.65887,0.16226 0.24589,0.0201 0.55165,0.0202 0.93689,0.0202 h 1.85777 c 0.38524,0 0.69049,10e-6 0.93638,-0.0202 0.25188,-0.0205 0.46466,-0.0635 0.65939,-0.16226 0.31528,-0.16065 0.5716,-0.41698 0.73225,-0.73226 0.0991,-0.19473 0.14181,-0.40751 0.16227,-0.65939 0.0201,-0.24589 0.0202,-0.55114 0.0202,-0.93638 v -1.85776 c 0,-0.38524 1e-5,-0.69101 -0.0202,-0.9369 -0.0205,-0.25188 -0.0635,-0.46449 -0.16227,-0.65887 -0.16065,-0.31528 -0.41697,-0.57161 -0.73225,-0.73226 -0.19473,-0.0991 -0.40751,-0.14232 -0.65939,-0.16278 -0.24589,-0.0201 -0.55114,-0.0202 -0.93638,-0.0202 z m -0.49919,2.11718 c 0.0157,-7.9e-4 0.0318,-9.1e-4 0.0486,0.002 0.0461,0.006 0.09,0.0237 0.12712,0.0517 l 0.70538,0.52917 c 0.14102,0.10583 0.14102,0.31739 0,0.42323 l -0.70538,0.52916 c -0.28407,0.22564 -0.61353,-0.21381 -0.31729,-0.42323 l 0.42323,-0.31781 -0.42323,-0.31729 c -0.20296,-0.15219 -0.0942,-0.46402 0.14159,-0.47594 z m 2.80758,0.002 c 0.0939,-0.0114 0.18665,0.0282 0.2434,0.10387 0.0877,0.117 0.0638,0.28293 -0.0532,0.37052 l -0.42323,0.31729 0.42323,0.31782 c 0.29623,0.20942 -0.0332,0.64887 -0.31729,0.42323 l -0.70539,-0.52865 c -0.14102,-0.10584 -0.14102,-0.3174 0,-0.42323 l 0.70539,-0.52969 c 0.0371,-0.0279 0.081,-0.0456 0.12712,-0.0512 z m -1.34049,2.06396 a 0.71449018,0.76186997 0 0 1 0.71417,0.76171 0.71449018,0.76186997 0 0 1 -0.71417,0.76171 0.71449018,0.76186997 0 0 1 -0.71468,-0.76171 0.71449018,0.76186997 0 0 1 0.71468,-0.76171 z m -2.2934,1.71256 c 0.004,0.004 0.009,0.006 0.0145,0.006 h 4.25814 c 0.006,0 0.0103,-0.003 0.0139,-0.006 v 5.1e-4 c -0.004,0.004 -0.008,0.006 -0.0139,0.006 h -4.25814 c -0.006,0 -0.0108,-0.003 -0.0145,-0.007 z" /></g></svg>
