<?xml version="1.0" encoding="UTF-8" standalone="no"?>
<!-- Created with Inkscape (http://www.inkscape.org/) -->

<svg
        width="6.7477632mm"
        height="6.7221026mm"
        viewBox="0 0 6.7477632 6.7221026"
        version="1.1"
        id="svg1"
        xml:space="preserve"
        xmlns:inkscape="http://www.inkscape.org/namespaces/inkscape"
        xmlns:sodipodi="http://sodipodi.sourceforge.net/DTD/sodipodi-0.dtd"
        xmlns="http://www.w3.org/2000/svg"
><sodipodi:namedview
     id="namedview1"
     pagecolor="#ffffff"
     bordercolor="#000000"
     borderopacity="0.25"
     inkscape:showpageshadow="2"
     inkscape:pageopacity="0.0"
     inkscape:pagecheckerboard="0"
     inkscape:deskcolor="#d1d1d1"
     inkscape:document-units="mm"><inkscape:page
       x="0"
       y="0"
       width="6.7477632"
       height="6.7221026"
       id="page2"
       margin="0"
       bleed="0" /></sodipodi:namedview>
    <defs
            id="defs1"><linearGradient
       id="swatch4"
       inkscape:swatch="solid"><stop
         style="stop-color:#000000;stop-opacity:1;"
         offset="0"
         id="stop4" /></linearGradient>
        <linearGradient
                id="swatch3"
                inkscape:swatch="solid"><stop
         style="stop-color:#ebd5e5;stop-opacity:1;"
         offset="0"
         id="stop3" /></linearGradient></defs>
    <g
            inkscape:label="Layer 1"
            inkscape:groupmode="layer"
            id="layer1"
            transform="translate(-227.81051,-300.21643)"><path
       style="fill:#ebd5e5;fill-opacity:1;stroke:#ebd5e5;stroke-width:0;stroke-dasharray:none;stroke-opacity:1"
       d="m 229.52747,306.79842 -0.35546,-0.14412 -0.32576,0.10592 c -0.32523,0.10575 -0.32608,0.10575 -0.51247,0.005 -0.10269,-0.0556 -0.26243,-0.20068 -0.35498,-0.32247 l -0.16828,-0.22146 v -1.52294 c 0,-1.34826 0.0116,-1.56821 0.10091,-1.91751 0.29934,-1.17039 1.20986,-2.1145 2.38086,-2.4687 0.45907,-0.13885 1.4204,-0.12427 1.86771,0.0283 0.8225,0.28059 1.60267,0.93782 1.9791,1.66725 0.36926,0.71554 0.38545,0.8079 0.41244,2.35384 0.0155,0.88931 0.004,1.4891 -0.032,1.68333 -0.0632,0.33935 -0.23582,0.60253 -0.47727,0.72739 -0.14721,0.0761 -0.18812,0.0756 -0.54033,-0.007 -0.40223,-0.0947 -0.54714,-0.0807 -1.00931,0.0974 -0.29723,0.11456 -0.62036,0.0994 -0.97224,-0.0455 -0.16886,-0.0696 -0.36458,-0.12647 -0.43494,-0.12647 -0.0704,0 -0.26609,0.0569 -0.43495,0.12647 -0.40113,0.16523 -0.68178,0.16068 -1.12301,-0.0183 z m 2.10036,-1.35731 c 0.15458,-0.15457 0.17396,-0.2045 0.17379,-0.44773 -2.5e-4,-0.35076 -0.13027,-0.57396 -0.38296,-0.65736 -0.40958,-0.13515 -0.78349,0.10417 -0.83176,0.53237 -0.0518,0.45937 0.18405,0.74671 0.61288,0.74671 0.22072,0 0.27691,-0.0228 0.42805,-0.17399 z m -1.5505,-1.71805 c 0.37417,-0.23727 0.70107,-0.56099 0.70107,-0.69424 0,-0.23936 -0.79497,-0.80973 -1.08901,-0.78131 -0.15331,0.0148 -0.16572,0.0305 -0.18009,0.22714 -0.014,0.19151 0.004,0.22768 0.19038,0.38741 l 0.20581,0.17616 -0.22876,0.22452 c -0.24749,0.24289 -0.27168,0.32383 -0.1491,0.49882 0.1078,0.15391 0.2635,0.14301 0.5497,-0.0385 z m 2.74609,0.0533 c 0.1036,-0.19359 0.06,-0.34329 -0.1571,-0.53943 l -0.21006,-0.18978 0.21006,-0.20185 c 0.47523,-0.45665 0.0859,-0.83527 -0.46026,-0.4476 -0.12383,0.0879 -0.3115,0.24225 -0.41704,0.34301 -0.32822,0.31329 -0.26119,0.4713 0.39226,0.92464 0.33495,0.23235 0.55668,0.27069 0.64214,0.11101 z"
       id="path11"
       inkscape:export-filename="path11.svg"
       inkscape:export-xdpi="118.15385"
       inkscape:export-ydpi="118.15385" /></g></svg>
